<?xml version="1.0" encoding="UTF-8"?> <!-- Generator: Adobe Illustrator 23.0.2, SVG Export Plug-In . SVG Version: 6.00 Build 0) --> <svg xmlns="http://www.w3.org/2000/svg" xmlns:xlink="http://www.w3.org/1999/xlink" x="0px" y="0px" viewBox="0 0 721 169" style="enable-background:new 0 0 721 169;" xml:space="preserve"> <style type="text/css"> .st0{display:none;} .st1{fill:#EBAD44;} .st2{fill:#FFFFFF;} </style> <g id="Guides" class="st0"> </g> <g id="Background"> </g> <g id="BC_Main_Logo"> <g> <g> <g> <path class="st1" d="M128.5,60.2c-3.2-7.6-7.8-14.4-13.7-20.3c-5.9-5.9-12.7-10.4-20.3-13.7c-7.9-3.3-16.2-5-24.8-5 c-8.6,0-16.9,1.7-24.8,5c-7.6,3.2-14.4,7.8-20.3,13.7C18.8,45.8,14.2,52.6,11,60.2C7.7,68.1,6,76.4,6,85c0,8.6,1.7,16.9,5,24.8 c3.2,7.6,7.8,14.4,13.7,20.3c5.9,5.9,12.7,10.4,20.3,13.7c7.9,3.3,16.2,5,24.8,5c8.6,0,16.9-1.7,24.8-5 c7.6-3.2,14.4-7.8,20.3-13.7c5.9-5.9,10.4-12.7,13.7-20.3c3.3-7.9,5-16.2,5-24.8C133.5,76.4,131.8,68.1,128.5,60.2z M107.9,123.1c-10.2,10.2-23.7,15.8-38.1,15.8s-27.9-5.6-38.1-15.8C21.4,112.9,15.8,99.4,15.8,85c0-14.4,5.6-27.9,15.8-38.1 c10.2-10.2,23.7-15.8,38.1-15.8s27.9,5.6,38.1,15.8C118,57.1,123.7,70.6,123.7,85C123.7,99.4,118,112.9,107.9,123.1z"></path> </g> <g> <g> <path class="st1" d="M101.7,72.4c1.2-2.1,1.8-4.5,1.8-7c0-8-6.5-14.5-14.5-14.5H75.5v-9.3h-9.8V70h-10 c-13.6,0-24.6,11-24.6,24.6c0,13.6,11,24.6,24.6,24.6h10v9.3h9.8v-9.3h13.4v-9.8H55.7c-8.1,0-14.8-6.6-14.8-14.8 c0-8.1,6.6-14.8,14.8-14.8h10v5.8h9.8v-5.8h18.4c2.6,0,4.7,2.1,4.7,4.7c0,2.6-2.1,4.7-4.7,4.7H52V99h13.7v6.8h9.8V99h18.4 c8,0,14.5-6.5,14.5-14.5C108.4,79.4,105.7,74.9,101.7,72.4z M89.4,70H75.5v-9.4H89c2.6,0,4.7,2.1,4.7,4.7 C93.8,67.8,91.8,69.8,89.4,70z"></path> </g> <g> <rect x="52" y="50.8" class="st1" width="10.2" height="9.8"></rect> </g> </g> </g> <g> <path class="st2" d="M156.8,57.5h13.9c6.6,0,10.7,0.7,14.1,2.7c3.6,2.1,5.8,5.5,5.8,10c0,5.4-3.2,8.7-7.5,10.2v0.1 c6.1,1.5,9.5,5.7,9.5,11.9c0,4.7-1.9,8.9-6.5,11.7c-3.6,2.2-8.2,3.2-15.4,3.2h-13.9V57.5z M173.3,78.7c4.8,0,8.6-2.1,8.6-6.7 c0-2.6-1.2-4.3-3.1-5.4c-1.9-1.1-4.3-1.4-8.7-1.4h-4.6v13.5H173.3z M171.1,99.7c5.2,0,8-0.5,9.9-1.8c1.6-1,2.9-2.7,2.9-5.6 c0-4.8-3.7-7.3-10.3-7.3h-8v14.7H171.1z"></path> <path class="st2" d="M200.3,54.8h8.3v52.5h-8.3V54.8z"></path> <path class="st2" d="M234.6,72.7c10.5,0,18.4,7.7,18.4,17.7c0,10-7.8,17.7-18.4,17.7c-10.5,0-18.4-7.7-18.4-17.7 C216.2,80.4,224.1,72.7,234.6,72.7z M234.6,100.8c5.8,0,10-4.5,10-10.4c0-5.8-4.3-10.4-10-10.4c-5.8,0-10,4.5-10,10.4 C224.5,96.3,228.8,100.8,234.6,100.8z"></path> <path class="st2" d="M287.6,105.5c-3.1,1.7-7,2.5-10.6,2.5c-10.9,0-18.7-7.4-18.7-17.5c0-10.6,8.5-17.8,19.1-17.8 c3.6,0,7,0.9,9.6,2.2v8.1c-3-1.9-6.3-3.1-9.5-3.1c-6.5,0-10.9,4.6-10.9,10.5c0,6,4.5,10.3,11,10.3c3.6,0,7.2-1.2,9.9-3.4V105.5z"></path> <path class="st2" d="M295.7,54.8h8.3v33.3l0.1,0.1l13.5-14.6h9.9l-14.2,15.1l15.5,18.7h-10.2l-14.4-17.8l-0.1,0.1v17.7h-8.3V54.8 z"></path> <path class="st1" d="M327.4,84.8H344v7h-16.6V84.8z"></path> <path class="st1" d="M376.7,56.8c5.1,0,10,1.2,13.9,3.3v9.1c-3.6-2.6-8.7-4.5-13.9-4.5c-10.5,0-17.8,7.6-17.8,17.7 c0,10,7.2,17.7,18.3,17.7c5.3,0,10.2-1.8,14.2-4.8v9.2c-4.1,2.4-9.5,3.6-14.6,3.6c-15.6,0-26.6-11-26.6-25.5 C350.2,68.3,360.9,56.8,376.7,56.8z"></path> <path class="st1" d="M399.2,54.8h8.3v22.3l0.1,0.1c2.8-2.5,6.6-4.5,11.1-4.5c3.6,0,6.8,1.2,8.9,3.6c2,2.1,2.9,5,2.9,10v21h-8.3 V87.7c0-3.2-0.4-4.7-1.4-5.8c-1.1-1.3-2.6-1.9-4.4-1.9c-3.4,0-6.7,1.9-8.9,4.3v23h-8.3V54.8z"></path> <path class="st1" d="M441.7,105.8c-2.3-1.7-3.8-4.4-3.8-7.8c0-3.7,1.8-6.5,4.3-8.2c2.5-1.7,6-2.3,9.5-2.3c2.3,0,4.5,0.3,6.5,0.8 v-2c0-2.1-0.6-3.6-1.7-4.6c-1.2-1.1-3.2-1.7-5.7-1.7c-4.1,0-7.6,1.4-10.2,3v-7.6c2.7-1.5,6.6-2.7,11.4-2.7c4.4,0,8.3,1,10.9,3.2 c2.3,1.9,3.6,4.8,3.6,9v13c0,1.9,0.7,3.2,2.3,3.2c0.6,0,1.3-0.2,1.9-0.5v6.5c-1,0.5-2.5,0.8-4.1,0.8c-2.8,0-5.4-1-6.9-3.1h-0.1 c-2.1,1.7-5.6,3.2-10,3.2C446.7,108.1,443.9,107.5,441.7,105.8z M458.2,99.4v-5.7c-1.5-0.4-3.6-0.7-5.2-0.7 c-3.4,0-6.8,1.1-6.8,4.4c0,2.7,2.4,4.1,5.4,4.1C454.1,101.5,456.6,100.6,458.2,99.4z"></path> <path class="st1" d="M481,57.1c2.8,0,5.2,2.3,5.2,5.2c0,2.8-2.3,5.2-5.2,5.2c-2.8,0-5.2-2.3-5.2-5.2 C475.8,59.5,478.1,57.1,481,57.1z M476.8,73.5h8.3v33.8h-8.3V73.5z"></path> <path class="st1" d="M494.9,73.5h8.2v3.6l0.1,0.1c2.8-2.5,6.7-4.5,11.1-4.5c3.6,0,6.8,1.2,8.9,3.6c2,2.1,2.9,5,2.9,10v21h-8.3 V87.7c0-3-0.4-4.7-1.4-5.8c-1-1.2-2.5-1.9-4.5-1.9c-3.3,0-6.7,1.9-8.9,4.3v23h-8.3V73.5z"></path> <path class="st2" d="M541.3,97.4c3,0,5.4,2.4,5.4,5.4c0,3-2.4,5.4-5.4,5.4c-3,0-5.4-2.4-5.4-5.4 C535.9,99.8,538.4,97.4,541.3,97.4z"></path> <path class="st2" d="M582.6,105.5c-3.1,1.7-7,2.5-10.6,2.5c-10.9,0-18.7-7.4-18.7-17.5c0-10.6,8.5-17.8,19.1-17.8 c3.6,0,7,0.9,9.6,2.2v8.1c-3-1.9-6.3-3.1-9.5-3.1c-6.5,0-10.9,4.6-10.9,10.5c0,6,4.5,10.3,11,10.3c3.6,0,7.2-1.2,9.9-3.4V105.5z"></path> <path class="st2" d="M606.7,72.7c10.5,0,18.4,7.7,18.4,17.7c0,10-7.8,17.7-18.4,17.7c-10.5,0-18.4-7.7-18.4-17.7 C588.3,80.4,596.2,72.7,606.7,72.7z M606.7,100.8c5.8,0,10-4.5,10-10.4c0-5.8-4.3-10.4-10-10.4c-5.8,0-10,4.5-10,10.4 C596.6,96.3,600.9,100.8,606.7,100.8z"></path> <path class="st2" d="M677.7,87.5c0-2.9-0.5-4.5-1.5-5.6c-1.1-1.2-2.5-1.8-4.3-1.8c-3.2,0-6.4,1.9-8.5,4c0.1,0.6,0.1,1.3,0.1,2.1 v21.2h-8.3V87.5c0-3-0.3-4.5-1.4-5.6c-1.2-1.3-2.8-1.8-4.4-1.8c-3.2,0-6.4,1.9-8.5,4.1v23.2h-8.3V73.5h8.2v3.6l0.1,0.1 c2.8-2.5,6.5-4.4,10.8-4.4c4,0,8.1,1.6,10.1,5.3c3.8-3.5,8-5.3,12.4-5.3c3.7,0,6.7,1.2,8.8,3.4c2.1,2.3,3,5.2,3,10v21.2h-8.3 V87.5z"></path> </g> </g> </g> </svg> 